<?xml version="1.0" standalone="no"?>
<!DOCTYPE svg PUBLIC "-//W3C//DTD SVG 20010904//EN"
 "http://www.w3.org/TR/2001/REC-SVG-20010904/DTD/svg10.dtd">
<svg version="1.0" xmlns="http://www.w3.org/2000/svg"
 width="500.000000pt" height="500.000000pt" viewBox="0 0 500.000000 500.000000"
 preserveAspectRatio="xMidYMid meet">

<g transform="translate(0.000000,500.000000) scale(0.100000,-0.100000)"
fill="#000000" stroke="none">
<path d="M2224 4320 c-19 -8 -34 -46 -85 -227 -7 -24 -15 -43 -18 -43 -3 0
-49 43 -101 96 -89 90 -97 95 -129 90 -18 -3 -35 -6 -36 -8 -1 -2 18 -86 43
-186 l46 -184 34 6 c19 3 37 8 40 10 3 3 -7 52 -21 108 -15 55 -26 103 -24
104 2 2 37 -31 79 -72 96 -94 103 -92 141 33 15 48 27 95 27 103 0 8 3 10 8 5
7 -8 25 -67 59 -198 3 -13 11 -16 31 -11 51 12 51 12 15 149 -18 72 -38 154
-44 183 -12 54 -21 60 -65 42z"/>
<path d="M2453 4237 c-43 -16 -46 -20 -32 -51 9 -19 17 -25 28 -20 29 13 99
16 120 5 12 -7 21 -21 21 -31 0 -18 -7 -20 -62 -20 -73 0 -108 -15 -126 -53
-18 -37 -1 -90 34 -106 32 -14 99 -14 127 0 16 9 22 9 25 0 2 -6 21 -11 43
-11 l39 0 0 105 c0 73 -5 115 -15 134 -26 52 -127 75 -202 48z m119 -167 c29
0 20 -41 -14 -59 -34 -20 -83 -5 -83 24 0 21 42 48 63 40 8 -3 23 -5 34 -5z"/>
<path d="M3119 4133 c-28 -60 -69 -143 -90 -186 l-39 -78 35 -15 c19 -8 37
-14 40 -14 2 0 18 29 34 65 33 71 70 115 99 115 27 0 72 -38 72 -61 0 -11 -18
-55 -40 -99 l-40 -80 32 -20 c18 -11 35 -20 38 -20 3 0 24 40 48 88 66 138 57
200 -34 238 -18 8 -45 14 -59 14 -14 0 -25 2 -25 5 0 2 12 30 26 61 14 31 24
57 22 59 -2 1 -17 10 -35 19 l-32 16 -52 -107z"/>
<path d="M2792 4180 c-52 -32 -74 -76 -69 -138 7 -92 85 -150 189 -140 27 3
57 13 66 22 15 15 15 18 -10 42 -24 25 -27 25 -51 10 -65 -43 -137 34 -102
108 29 61 92 68 135 15 12 -15 21 -17 44 -11 38 10 41 22 17 54 -46 58 -155
77 -219 38z"/>
<path d="M3531 4034 c-26 -19 -27 -45 -3 -67 35 -32 82 -15 82 29 0 38 -46 60
-79 38z"/>
<path d="M3397 3840 c-42 -60 -80 -115 -83 -123 -3 -9 7 -23 26 -37 17 -12 33
-21 34 -19 2 2 34 48 72 102 38 55 75 107 82 117 11 15 8 21 -21 43 l-33 25
-77 -108z"/>
<path d="M3520 3735 l-104 -104 24 -26 c13 -14 28 -25 34 -25 6 0 38 27 71 59
33 32 70 62 81 65 27 8 84 -37 84 -66 0 -11 -30 -51 -70 -92 l-70 -72 30 -29
30 -28 76 75 c72 71 77 79 81 124 5 65 -11 92 -74 125 -31 16 -48 30 -42 36 6
6 -2 20 -19 36 l-28 27 -104 -105z"/>
<path d="M1692 3818 c-7 -7 -12 -24 -12 -38 0 -33 17 -50 50 -50 33 0 50 17
50 50 0 33 -17 50 -50 50 -14 0 -31 -5 -38 -12z"/>
<path d="M1237 3792 l-27 -28 25 -24 c24 -22 24 -24 8 -42 -16 -18 -16 -20 4
-39 17 -18 23 -19 41 -8 18 11 26 7 79 -49 52 -55 63 -62 97 -62 31 0 46 7 77
39 22 21 39 43 39 48 0 5 -12 15 -26 22 -23 10 -28 9 -41 -9 -22 -31 -44 -24
-97 29 l-48 49 23 31 c22 30 22 31 4 51 l-18 20 -23 -21 c-24 -23 -58 -20 -68
6 -8 22 -19 19 -49 -13z"/>
<path d="M1147 3590 c-41 -41 -57 -65 -62 -94 -10 -49 3 -86 36 -105 35 -20
72 -8 123 39 50 46 76 52 76 16 0 -16 -16 -39 -48 -68 -43 -38 -48 -46 -39
-66 15 -33 38 -27 84 21 76 79 93 147 48 192 -39 40 -90 28 -149 -34 -37 -39
-66 -41 -66 -6 0 17 14 38 41 64 41 37 41 38 26 67 l-15 29 -55 -55z"/>
<path d="M3815 3502 c-46 -16 -86 -44 -100 -72 -21 -41 -19 -113 5 -160 21
-42 91 -96 109 -85 18 11 13 63 -7 69 -38 12 -65 91 -42 126 8 13 11 12 25 -5
8 -11 23 -33 32 -50 9 -16 29 -49 45 -72 33 -49 52 -48 93 7 64 86 2 224 -110
243 -16 3 -39 2 -50 -1z m100 -97 c14 -13 25 -35 25 -48 0 -23 -25 -67 -32
-57 -19 24 -68 109 -68 118 0 21 50 13 75 -13z"/>
<path d="M864 3415 c-21 -32 -15 -58 18 -69 50 -18 89 42 52 78 -23 23 -51 20
-70 -9z"/>
<path d="M986 3356 c-21 -33 -20 -55 2 -63 9 -4 64 -33 121 -66 100 -57 105
-59 118 -41 33 44 34 53 11 65 -13 7 -36 20 -53 29 -16 9 -64 36 -106 59 l-76
41 -17 -24z"/>
<path d="M911 3190 c-10 -30 -11 -30 -43 -17 l-34 14 -16 -39 -17 -38 35 -15
c30 -12 34 -17 25 -34 -9 -16 -6 -21 19 -30 26 -8 31 -7 40 10 8 14 15 17 28
10 9 -4 45 -18 80 -30 57 -19 65 -20 98 -6 37 15 64 62 64 110 0 21 -5 25 -30
25 -22 0 -30 -5 -30 -18 0 -23 -19 -42 -42 -42 -19 0 -128 46 -128 54 0 3 5
17 12 31 10 22 9 28 -3 36 -27 17 -47 9 -58 -21z"/>
<path d="M4051 3031 c-96 -25 -176 -50 -177 -56 -2 -5 11 -66 29 -135 l32
-125 30 3 c17 2 32 6 34 8 2 2 -7 44 -19 94 -13 49 -21 92 -18 95 2 3 70 21
149 41 79 20 145 37 147 39 6 5 -19 85 -26 84 -4 -1 -85 -22 -181 -48z"/>
<path d="M841 2934 c-38 -32 -57 -93 -42 -136 14 -39 14 -38 -3 -38 -12 0 -31
-68 -22 -77 6 -7 278 -54 283 -50 2 3 6 20 9 39 l6 35 -83 16 c-117 24 -155
66 -113 125 18 26 44 27 151 8 l71 -13 7 35 c3 19 3 38 -2 42 -12 10 -158 40
-198 40 -21 0 -44 -9 -64 -26z"/>
<path d="M4037 2718 c-56 -15 -90 -65 -95 -140 -3 -43 0 -70 13 -99 20 -43 34
-48 59 -20 16 18 16 21 1 51 -11 21 -15 44 -11 65 7 33 41 73 53 62 3 -4 8
-54 11 -112 l5 -105 32 0 c66 0 135 75 135 147 0 110 -95 181 -203 151z m113
-88 c31 -31 36 -68 13 -98 -11 -15 -28 -28 -37 -30 -14 -3 -16 7 -16 72 0 80
7 89 40 56z"/>
<path d="M844 2586 c-60 -27 -93 -106 -73 -178 27 -103 137 -150 220 -95 37
24 79 97 79 137 0 35 -17 91 -35 114 -15 19 -15 19 -40 -4 -22 -21 -23 -25
-10 -44 23 -32 19 -89 -8 -114 -32 -31 -37 -28 -37 21 0 23 -3 72 -7 110 -6
64 -7 67 -32 67 -14 -1 -40 -7 -57 -14z m48 -137 c2 -39 0 -73 -3 -75 -4 -2
-18 6 -33 17 -30 24 -35 72 -10 107 29 42 42 28 46 -49z"/>
<path d="M3972 2385 c-45 -33 -66 -110 -42 -156 8 -15 7 -19 -3 -19 -12 0 -27
-39 -27 -70 0 -9 163 -40 208 -40 70 0 118 82 110 187 -5 62 -8 66 -40 58 -23
-6 -25 -11 -24 -67 1 -52 -2 -62 -23 -79 -34 -28 -47 -19 -41 27 9 81 5 123
-15 144 -28 28 -75 35 -103 15z m71 -90 c3 -7 3 -31 0 -54 -4 -31 -10 -41 -24
-41 -47 0 -67 76 -28 104 23 16 44 12 52 -9z"/>
<path d="M933 2236 l-142 -31 6 -30 c3 -16 9 -34 13 -38 4 -4 70 4 148 19
l140 26 -5 37 c-3 20 -8 38 -12 42 -3 3 -70 -9 -148 -25z"/>
<path d="M676 2184 c-19 -18 -19 -24 -6 -58 13 -36 65 -37 82 -1 22 50 -38 97
-76 59z"/>
<path d="M1030 2099 c0 -22 9 -40 30 -59 41 -38 41 -79 -1 -114 -40 -34 -82
-34 -116 0 -22 22 -25 31 -20 68 5 37 3 47 -18 66 l-23 22 -17 -33 c-49 -94
36 -229 145 -229 39 0 105 33 124 63 39 61 26 159 -29 214 -44 44 -75 44 -75
2z"/>
<path d="M3865 2053 c-8 -19 -13 -38 -10 -42 2 -4 36 -18 75 -32 93 -31 112
-49 108 -102 -2 -37 0 -41 26 -50 36 -12 49 4 41 54 -4 30 -2 37 12 35 11 -1
20 10 26 32 6 18 8 34 5 37 -2 2 -64 27 -136 54 l-133 49 -14 -35z"/>
<path d="M3790 1858 c-10 -17 -17 -34 -15 -38 2 -3 24 -17 48 -29 68 -35 117
-79 117 -105 0 -30 -36 -76 -60 -76 -18 0 -96 41 -152 81 l-26 19 -21 -34
c-12 -18 -21 -36 -21 -39 0 -3 40 -28 89 -56 113 -65 157 -69 206 -17 31 33
53 96 40 116 -3 6 3 9 15 7 13 -1 27 7 38 25 16 26 15 28 -3 43 -11 8 -33 22
-50 30 -16 8 -61 35 -100 60 -38 24 -73 45 -78 45 -4 0 -16 -14 -27 -32z"/>
<path d="M1114 1830 c-56 -22 -67 -84 -34 -189 24 -77 20 -101 -19 -101 -34 0
-79 57 -87 112 -6 33 -8 35 -38 28 -28 -6 -31 -9 -28 -40 6 -60 58 -142 104
-166 32 -17 91 -18 120 -3 11 6 26 26 34 45 13 30 12 42 -7 119 -22 87 -21
111 6 121 31 12 85 -62 99 -136 6 -34 8 -36 42 -32 35 4 36 5 29 41 -10 61
-59 144 -104 179 -43 32 -76 39 -117 22z"/>
<path d="M3591 1569 c-23 -30 -23 -32 -5 -49 43 -41 198 -170 205 -170 9 0 53
60 48 64 -2 1 -52 44 -111 94 -58 51 -108 92 -110 92 -2 0 -15 -14 -27 -31z"/>
<path d="M1406 1414 c-36 -41 -68 -89 -71 -105 -15 -65 24 -128 106 -169 49
-26 65 -25 73 3 9 33 8 35 -16 42 -42 13 -88 55 -88 80 0 32 16 40 43 21 12
-9 37 -28 56 -41 19 -14 48 -25 66 -25 68 0 99 86 53 145 -24 30 -83 59 -100
49 -6 -4 -8 1 -4 14 5 15 -1 25 -23 41 l-30 22 -65 -77z m145 -55 c33 -23 36
-40 13 -63 -13 -14 -19 -14 -42 -2 -15 8 -35 23 -45 34 -17 18 -17 21 -2 36
22 21 41 20 76 -5z"/>
<path d="M3502 1468 c-18 -11 -32 -22 -32 -25 0 -2 27 -35 60 -74 58 -67 67
-89 54 -124 -10 -24 -59 -46 -84 -37 -19 7 -110 109 -110 123 0 19 -35 17 -59
-3 l-27 -23 34 -45 c53 -71 113 -130 138 -136 60 -15 120 19 157 91 9 17 16
24 17 18 0 -19 16 -16 46 11 l28 23 -87 106 c-48 58 -91 108 -95 111 -4 2 -22
-5 -40 -16z"/>
<path d="M3862 1354 c-39 -27 -23 -84 24 -84 41 0 63 51 34 80 -24 24 -29 24
-58 4z"/>
<path d="M3127 1336 c-88 -32 -145 -105 -131 -169 9 -41 123 -277 134 -277 5
0 21 5 35 12 19 8 25 17 21 31 -4 16 0 17 24 12 42 -9 115 26 140 67 41 68 12
174 -56 203 -20 8 -48 15 -63 15 -38 -1 -107 -35 -121 -59 -14 -28 -30 -18
-30 20 0 18 9 39 24 54 25 25 99 50 122 41 10 -4 14 4 14 29 0 34 -1 35 -37
35 -21 -1 -55 -7 -76 -14z m146 -208 c52 -62 -30 -157 -102 -117 -36 20 -49
63 -30 97 30 54 95 64 132 20z"/>
<path d="M1676 1278 c-9 -35 -8 -38 14 -38 37 0 42 -33 14 -86 -38 -73 -46
-79 -81 -61 -29 15 -30 15 -46 -12 -17 -28 -16 -29 13 -41 33 -14 36 -23 16
-60 -13 -23 -12 -26 15 -42 39 -24 47 -23 61 7 9 21 17 25 37 20 20 -4 29 0
40 17 12 19 11 24 -7 38 -20 17 -20 17 -1 46 29 43 59 113 59 138 0 29 -25 63
-60 81 -42 21 -67 19 -74 -7z"/>
<path d="M1877 1148 c-51 -137 -58 -196 -26 -234 22 -27 90 -56 144 -61 57 -6
66 -1 58 37 -4 22 -10 25 -43 25 -45 0 -93 31 -98 64 -4 25 11 27 61 6 81 -34
145 -10 162 58 6 23 1 33 -34 68 -38 39 -43 41 -91 37 -41 -2 -50 0 -50 13 0
15 -27 29 -56 29 -6 0 -18 -19 -27 -42z m163 -63 c33 -40 -20 -70 -80 -45 -29
12 -31 35 -6 52 19 13 73 9 86 -7z"/>
<path d="M2744 1075 c-15 -23 -15 -27 0 -50 29 -44 96 -26 96 25 0 51 -67 69
-96 25z"/>
<path d="M2267 1066 c-59 -22 -91 -53 -114 -111 -26 -68 -10 -149 39 -201 36
-39 108 -60 229 -70 l86 -7 6 49 c11 86 29 325 25 329 -5 5 -174 25 -208 24
-14 0 -42 -6 -63 -13z m166 -66 c18 0 19 -5 13 -72 -4 -40 -9 -94 -13 -120
l-6 -48 -43 0 c-111 0 -177 67 -153 155 18 64 69 98 138 90 24 -3 53 -5 64 -5z"/>
</g>
</svg>
